# 3ds Max Wavefront OBJ Exporter v0.97b - (c)2007 guruware
# File Created: 09.02.2013 12:41:14

#
# object Cylinder01
#

v  0.000000 -0.000081 0.000000
v  -0.000000 -0.000081 -1.000000
v  -0.000000 0.382603 -0.923880
v  -0.000000 0.707026 -0.707107
v  -0.000000 0.923799 -0.382683
v  0.000000 0.999919 0.000000
v  0.000000 0.923799 0.382684
v  0.000000 0.707026 0.707107
v  0.000000 0.382603 0.923880
v  0.000000 -0.000081 1.000000
v  0.000000 -0.382764 0.923880
v  0.000000 -0.707187 0.707107
v  0.000000 -0.923960 0.382684
v  -0.000000 -1.000081 -0.000000
v  -0.000000 -0.923960 -0.382684
v  -0.000000 -0.707187 -0.707107
v  -0.000000 -0.382764 -0.923880
v  1.000000 -0.000081 -0.000000
# 18 vertices

vn -1.000000 0.000000 0.000000
vn -1.000000 0.000000 0.000000
vn -1.000000 0.000000 0.000000
vn -1.000000 0.000000 0.000000
vn -1.000000 0.000000 0.000000
vn -1.000000 0.000000 0.000000
vn -1.000000 0.000000 0.000000
vn -1.000000 0.000000 0.000000
vn -1.000000 0.000000 0.000000
vn -1.000000 0.000000 0.000000
vn -1.000000 0.000000 0.000000
vn -1.000000 0.000000 0.000000
vn -1.000000 0.000000 0.000000
vn -1.000000 0.000000 0.000000
vn -1.000000 0.000000 0.000000
vn -1.000000 0.000000 0.000000
vn -1.000000 0.000000 0.000000
vn -1.000000 0.000000 0.000000
vn -1.000000 0.000000 0.000000
vn -1.000000 0.000000 0.000000
vn -1.000000 0.000000 0.000000
vn -1.000000 0.000000 0.000000
vn -1.000000 0.000000 0.000000
vn -1.000000 0.000000 0.000000
vn -1.000000 0.000000 0.000000
vn -1.000000 0.000000 0.000000
vn -1.000000 0.000000 0.000000
vn -1.000000 0.000000 0.000000
vn -1.000000 0.000000 0.000000
vn -1.000000 0.000000 0.000000
vn -1.000000 0.000000 0.000000
vn -1.000000 0.000000 0.000000
vn -1.000000 0.000000 0.000000
vn -1.000000 0.000000 0.000000
vn -1.000000 0.000000 0.000000
vn -1.000000 0.000000 0.000000
vn -1.000000 0.000000 0.000000
vn -1.000000 0.000000 0.000000
vn -1.000000 0.000000 0.000000
vn -1.000000 0.000000 0.000000
vn -1.000000 0.000000 0.000000
vn -1.000000 0.000000 0.000000
vn -1.000000 0.000000 0.000000
vn -1.000000 0.000000 0.000000
vn -1.000000 0.000000 0.000000
vn -1.000000 0.000000 0.000000
vn -1.000000 0.000000 0.000000
vn -1.000000 0.000000 0.000000
vn 0.707107 0.000000 -0.707107
vn 0.707107 0.270598 -0.653282
vn 1.000000 -0.000000 -0.000000
vn 0.707107 0.270598 -0.653282
vn 0.707107 0.500000 -0.500000
vn 1.000000 -0.000000 -0.000000
vn 0.707107 0.500000 -0.500000
vn 0.707107 0.653282 -0.270598
vn 1.000000 -0.000000 -0.000000
vn 0.707107 0.653282 -0.270598
vn 0.707107 0.707107 -0.000000
vn 1.000000 -0.000000 -0.000000
vn 0.707107 0.707107 -0.000000
vn 0.707107 0.653281 0.270598
vn 1.000000 -0.000000 -0.000000
vn 0.707107 0.653281 0.270598
vn 0.707107 0.500000 0.500000
vn 1.000000 -0.000000 -0.000000
vn 0.707107 0.500000 0.500000
vn 0.707107 0.270598 0.653281
vn 1.000000 -0.000000 -0.000000
vn 0.707107 0.270598 0.653281
vn 0.707107 0.000000 0.707107
vn 1.000000 -0.000000 -0.000000
vn 0.707107 0.000000 0.707107
vn 0.707107 -0.270598 0.653282
vn 1.000000 -0.000000 -0.000000
vn 0.707107 -0.270598 0.653282
vn 0.707107 -0.500000 0.500000
vn 1.000000 -0.000000 -0.000000
vn 0.707107 -0.500000 0.500000
vn 0.707107 -0.653281 0.270598
vn 1.000000 -0.000000 -0.000000
vn 0.707107 -0.653281 0.270598
vn 0.707107 -0.707107 -0.000000
vn 1.000000 -0.000000 -0.000000
vn 0.707107 -0.707107 -0.000000
vn 0.707107 -0.653281 -0.270598
vn 1.000000 -0.000000 -0.000000
vn 0.707107 -0.653281 -0.270598
vn 0.707107 -0.500000 -0.500000
vn 1.000000 -0.000000 -0.000000
vn 0.707107 -0.500000 -0.500000
vn 0.707107 -0.270598 -0.653282
vn 1.000000 -0.000000 -0.000000
vn 0.707107 -0.270598 -0.653282
vn 0.707107 0.000000 -0.707107
vn 1.000000 -0.000000 -0.000000
# 96 vertex normals

g Cylinder01
f 1//1 3//2 2//3 
f 1//4 4//5 3//6 
f 1//7 5//8 4//9 
f 1//10 6//11 5//12 
f 1//13 7//14 6//15 
f 1//16 8//17 7//18 
f 1//19 9//20 8//21 
f 1//22 10//23 9//24 
f 1//25 11//26 10//27 
f 1//28 12//29 11//30 
f 1//31 13//32 12//33 
f 1//34 14//35 13//36 
f 1//37 15//38 14//39 
f 1//40 16//41 15//42 
f 1//43 17//44 16//45 
f 1//46 2//47 17//48 
f 2//49 3//50 18//51 
f 3//52 4//53 18//54 
f 4//55 5//56 18//57 
f 5//58 6//59 18//60 
f 6//61 7//62 18//63 
f 7//64 8//65 18//66 
f 8//67 9//68 18//69 
f 9//70 10//71 18//72 
f 10//73 11//74 18//75 
f 11//76 12//77 18//78 
f 12//79 13//80 18//81 
f 13//82 14//83 18//84 
f 14//85 15//86 18//87 
f 15//88 16//89 18//90 
f 16//91 17//92 18//93 
f 17//94 2//95 18//96 
# 32 faces

