# 3ds Max Wavefront OBJ Exporter v0.97b - (c)2007 guruware
# File Created: 04.02.2013 21:28:55

#
# object cube
#

v  -1.000000 0.000000 0.000000
v  0.000000 0.000000 0.000000
v  -1.000000 1.000000 0.000000
v  0.000000 1.000000 0.000000
v  -1.000000 0.000000 1.000000
v  0.000000 0.000000 1.000000
v  -1.000000 1.000000 1.000000
v  0.000000 1.000000 1.000000
# 8 vertices

vn 0.000000 0.000000 -1.000000
vn 0.000000 0.000000 -1.000000
vn 0.000000 0.000000 -1.000000
vn 0.000000 0.000000 -1.000000
vn 0.000000 0.000000 1.000000
vn 0.000000 0.000000 1.000000
vn 0.000000 0.000000 1.000000
vn 0.000000 0.000000 1.000000
vn 0.000000 -1.000000 0.000000
vn 0.000000 -1.000000 0.000000
vn 0.000000 -1.000000 0.000000
vn 0.000000 -1.000000 0.000000
vn 1.000000 0.000000 0.000000
vn 1.000000 0.000000 0.000000
vn 1.000000 0.000000 0.000000
vn 1.000000 0.000000 0.000000
vn 0.000000 1.000000 0.000000
vn 0.000000 1.000000 0.000000
vn 0.000000 1.000000 0.000000
vn 0.000000 1.000000 0.000000
vn -1.000000 0.000000 0.000000
vn -1.000000 0.000000 0.000000
vn -1.000000 0.000000 0.000000
vn -1.000000 0.000000 0.000000
# 24 vertex normals

vt 0.000000 0.000000 0.000000
vt 1.000000 0.000000 0.000000
vt 0.000000 1.000000 0.000000
vt 1.000000 1.000000 0.000000
vt 0.000000 0.000000 0.000000
vt 1.000000 0.000000 0.000000
vt 0.000000 1.000000 0.000000
vt 1.000000 1.000000 0.000000
vt 0.000000 0.000000 0.000000
vt 1.000000 0.000000 0.000000
vt 0.000000 1.000000 0.000000
vt 1.000000 1.000000 0.000000
# 12 texture coords

g cube
f 1/10/1 3/12/2 4/11/3 2/9/4 
f 5/9/5 6/10/6 8/12/7 7/11/8 
f 1/5/9 2/6/10 6/8/11 5/7/12 
f 2/1/13 4/2/14 8/4/15 6/3/16 
f 4/5/17 3/6/18 7/8/19 8/7/20 
f 3/1/21 1/2/22 5/4/23 7/3/24 
# 6 polygons

