# 3ds Max Wavefront OBJ Exporter v0.97b - (c)2007 guruware
# File Created: 09.02.2013 12:41:34

#
# object Cylinder01
#

v  0.000000 -0.000081 0.000000
v  -0.000000 -0.000081 -1.000000
v  -0.000000 0.382603 -0.923880
v  -0.000000 0.707026 -0.707107
v  -0.000000 0.923799 -0.382683
v  0.000000 0.999919 0.000000
v  0.000000 0.923799 0.382684
v  0.000000 0.707026 0.707107
v  0.000000 0.382603 0.923880
v  0.000000 -0.000081 1.000000
v  0.000000 -0.382764 0.923880
v  0.000000 -0.707187 0.707107
v  0.000000 -0.923960 0.382684
v  -0.000000 -1.000081 -0.000000
v  -0.000000 -0.923960 -0.382684
v  -0.000000 -0.707187 -0.707107
v  -0.000000 -0.382764 -0.923880
v  1.000000 -0.000081 -1.000000
v  1.000000 0.382603 -0.923880
v  1.000000 0.707026 -0.707107
v  1.000000 0.923799 -0.382683
v  1.000000 0.999919 0.000000
v  1.000000 0.923799 0.382683
v  1.000000 0.707026 0.707107
v  1.000000 0.382603 0.923879
v  1.000000 -0.000081 1.000000
v  1.000000 -0.382764 0.923880
v  1.000000 -0.707187 0.707107
v  1.000000 -0.923960 0.382684
v  1.000000 -1.000081 -0.000000
v  1.000000 -0.923960 -0.382684
v  1.000000 -0.707187 -0.707107
v  1.000000 -0.382764 -0.923880
v  1.000000 -0.000081 -0.000000
# 34 vertices

vn -1.000000 0.000000 0.000000
vn -1.000000 0.000000 0.000000
vn -1.000000 0.000000 0.000000
vn -1.000000 0.000000 0.000000
vn -1.000000 0.000000 0.000000
vn -1.000000 0.000000 0.000000
vn -1.000000 0.000000 0.000000
vn -1.000000 0.000000 0.000000
vn -1.000000 0.000000 0.000000
vn -1.000000 0.000000 0.000000
vn -1.000000 0.000000 0.000000
vn -1.000000 0.000000 0.000000
vn -1.000000 0.000000 0.000000
vn -1.000000 0.000000 0.000000
vn -1.000000 0.000000 0.000000
vn -1.000000 0.000000 0.000000
vn -1.000000 0.000000 0.000000
vn -1.000000 0.000000 0.000000
vn -1.000000 0.000000 0.000000
vn -1.000000 0.000000 0.000000
vn -1.000000 0.000000 0.000000
vn -1.000000 0.000000 0.000000
vn -1.000000 0.000000 0.000000
vn -1.000000 0.000000 0.000000
vn -1.000000 0.000000 0.000000
vn -1.000000 0.000000 0.000000
vn -1.000000 0.000000 0.000000
vn -1.000000 0.000000 0.000000
vn -1.000000 0.000000 0.000000
vn -1.000000 0.000000 0.000000
vn -1.000000 0.000000 0.000000
vn -1.000000 0.000000 0.000000
vn -1.000000 0.000000 0.000000
vn -1.000000 0.000000 0.000000
vn -1.000000 0.000000 0.000000
vn -1.000000 0.000000 0.000000
vn -1.000000 0.000000 0.000000
vn -1.000000 0.000000 0.000000
vn -1.000000 0.000000 0.000000
vn -1.000000 0.000000 0.000000
vn -1.000000 0.000000 0.000000
vn -1.000000 0.000000 0.000000
vn -1.000000 0.000000 0.000000
vn -1.000000 0.000000 0.000000
vn -1.000000 0.000000 0.000000
vn -1.000000 0.000000 0.000000
vn -1.000000 0.000000 0.000000
vn -1.000000 0.000000 0.000000
vn -0.000000 0.000000 -1.000000
vn -0.000000 0.382683 -0.923880
vn -0.000000 0.000000 -1.000000
vn -0.000000 0.000000 -1.000000
vn -0.000000 0.382683 -0.923880
vn -0.000000 0.382683 -0.923880
vn -0.000000 0.382683 -0.923880
vn -0.000000 0.707107 -0.707107
vn -0.000000 0.382683 -0.923880
vn -0.000000 0.382683 -0.923880
vn -0.000000 0.707107 -0.707107
vn -0.000000 0.707107 -0.707107
vn -0.000000 0.707107 -0.707107
vn -0.000000 0.923880 -0.382683
vn -0.000000 0.707107 -0.707107
vn -0.000000 0.707107 -0.707107
vn -0.000000 0.923880 -0.382683
vn -0.000000 0.923880 -0.382683
vn -0.000000 0.923880 -0.382683
vn -0.000000 1.000000 -0.000000
vn -0.000000 0.923880 -0.382683
vn -0.000000 0.923880 -0.382683
vn -0.000000 1.000000 -0.000000
vn -0.000000 1.000000 -0.000000
vn -0.000000 1.000000 -0.000000
vn 0.000000 0.923880 0.382683
vn -0.000000 1.000000 -0.000000
vn -0.000000 1.000000 -0.000000
vn 0.000000 0.923880 0.382684
vn 0.000000 0.923880 0.382683
vn 0.000000 0.923880 0.382684
vn 0.000000 0.707107 0.707107
vn 0.000000 0.923880 0.382683
vn 0.000000 0.923880 0.382684
vn 0.000000 0.707107 0.707107
vn 0.000000 0.707107 0.707107
vn 0.000000 0.707107 0.707107
vn 0.000000 0.382684 0.923880
vn 0.000000 0.707107 0.707107
vn 0.000000 0.707107 0.707107
vn 0.000000 0.382684 0.923880
vn 0.000000 0.382684 0.923880
vn 0.000000 0.382684 0.923880
vn 0.000000 0.000000 1.000000
vn 0.000000 0.382684 0.923880
vn 0.000000 0.382684 0.923880
vn 0.000000 0.000000 1.000000
vn 0.000000 0.000000 1.000000
vn 0.000000 0.000000 1.000000
vn 0.000000 -0.382683 0.923880
vn 0.000000 0.000000 1.000000
vn 0.000000 0.000000 1.000000
vn 0.000000 -0.382683 0.923880
vn 0.000000 -0.382683 0.923880
vn 0.000000 -0.382683 0.923880
vn 0.000000 -0.707107 0.707107
vn 0.000000 -0.382683 0.923880
vn 0.000000 -0.382683 0.923880
vn 0.000000 -0.707107 0.707107
vn 0.000000 -0.707107 0.707107
vn 0.000000 -0.707107 0.707107
vn 0.000000 -0.923880 0.382684
vn 0.000000 -0.707107 0.707107
vn 0.000000 -0.707107 0.707107
vn 0.000000 -0.923880 0.382684
vn 0.000000 -0.923880 0.382684
vn 0.000000 -0.923880 0.382684
vn -0.000000 -1.000000 -0.000000
vn 0.000000 -0.923880 0.382684
vn 0.000000 -0.923880 0.382684
vn -0.000000 -1.000000 -0.000000
vn -0.000000 -1.000000 -0.000000
vn -0.000000 -1.000000 -0.000000
vn -0.000000 -0.923879 -0.382684
vn -0.000000 -1.000000 -0.000000
vn -0.000000 -1.000000 -0.000000
vn -0.000000 -0.923879 -0.382684
vn -0.000000 -0.923879 -0.382684
vn -0.000000 -0.923879 -0.382684
vn -0.000000 -0.707107 -0.707107
vn -0.000000 -0.923879 -0.382684
vn -0.000000 -0.923879 -0.382684
vn -0.000000 -0.707107 -0.707107
vn -0.000000 -0.707107 -0.707107
vn -0.000000 -0.707107 -0.707107
vn -0.000000 -0.382683 -0.923880
vn -0.000000 -0.707107 -0.707107
vn -0.000000 -0.707107 -0.707107
vn -0.000000 -0.382683 -0.923880
vn -0.000000 -0.382683 -0.923880
vn -0.000000 -0.382683 -0.923880
vn -0.000000 0.000000 -1.000000
vn -0.000000 -0.382683 -0.923880
vn -0.000000 -0.382683 -0.923880
vn -0.000000 0.000000 -1.000000
vn -0.000000 0.000000 -1.000000
vn 1.000000 0.000000 -0.000000
vn 1.000000 0.000000 -0.000000
vn 1.000000 0.000000 -0.000000
vn 1.000000 0.000000 -0.000000
vn 1.000000 0.000000 -0.000000
vn 1.000000 0.000000 -0.000000
vn 1.000000 0.000000 -0.000000
vn 1.000000 0.000000 -0.000000
vn 1.000000 0.000000 -0.000000
vn 1.000000 0.000000 -0.000000
vn 1.000000 0.000000 -0.000000
vn 1.000000 0.000000 -0.000000
vn 1.000000 0.000000 -0.000000
vn 1.000000 0.000000 -0.000000
vn 1.000000 0.000000 -0.000000
vn 1.000000 0.000000 -0.000000
vn 1.000000 0.000000 -0.000000
vn 1.000000 0.000000 -0.000000
vn 1.000000 0.000000 -0.000000
vn 1.000000 0.000000 -0.000000
vn 1.000000 0.000000 -0.000000
vn 1.000000 0.000000 -0.000000
vn 1.000000 0.000000 -0.000000
vn 1.000000 0.000000 -0.000000
vn 1.000000 0.000000 -0.000000
vn 1.000000 0.000000 -0.000000
vn 1.000000 0.000000 -0.000000
vn 1.000000 0.000000 -0.000000
vn 1.000000 0.000000 -0.000000
vn 1.000000 0.000000 -0.000000
vn 1.000000 0.000000 -0.000000
vn 1.000000 0.000000 -0.000000
vn 1.000000 0.000000 -0.000000
vn 1.000000 0.000000 -0.000000
vn 1.000000 0.000000 -0.000000
vn 1.000000 0.000000 -0.000000
vn 1.000000 0.000000 -0.000000
vn 1.000000 0.000000 -0.000000
vn 1.000000 0.000000 -0.000000
vn 1.000000 0.000000 -0.000000
vn 1.000000 0.000000 -0.000000
vn 1.000000 0.000000 -0.000000
vn 1.000000 0.000000 -0.000000
vn 1.000000 0.000000 -0.000000
vn 1.000000 0.000000 -0.000000
vn 1.000000 0.000000 -0.000000
vn 1.000000 0.000000 -0.000000
vn 1.000000 0.000000 -0.000000
# 192 vertex normals

g Cylinder01
f 1//1 3//2 2//3 
f 1//4 4//5 3//6 
f 1//7 5//8 4//9 
f 1//10 6//11 5//12 
f 1//13 7//14 6//15 
f 1//16 8//17 7//18 
f 1//19 9//20 8//21 
f 1//22 10//23 9//24 
f 1//25 11//26 10//27 
f 1//28 12//29 11//30 
f 1//31 13//32 12//33 
f 1//34 14//35 13//36 
f 1//37 15//38 14//39 
f 1//40 16//41 15//42 
f 1//43 17//44 16//45 
f 1//46 2//47 17//48 
f 2//49 19//50 18//51 
f 2//52 3//53 19//54 
f 3//55 20//56 19//57 
f 3//58 4//59 20//60 
f 4//61 21//62 20//63 
f 4//64 5//65 21//66 
f 5//67 22//68 21//69 
f 5//70 6//71 22//72 
f 6//73 23//74 22//75 
f 6//76 7//77 23//78 
f 7//79 24//80 23//81 
f 7//82 8//83 24//84 
f 8//85 25//86 24//87 
f 8//88 9//89 25//90 
f 9//91 26//92 25//93 
f 9//94 10//95 26//96 
f 10//97 27//98 26//99 
f 10//100 11//101 27//102 
f 11//103 28//104 27//105 
f 11//106 12//107 28//108 
f 12//109 29//110 28//111 
f 12//112 13//113 29//114 
f 13//115 30//116 29//117 
f 13//118 14//119 30//120 
f 14//121 31//122 30//123 
f 14//124 15//125 31//126 
f 15//127 32//128 31//129 
f 15//130 16//131 32//132 
f 16//133 33//134 32//135 
f 16//136 17//137 33//138 
f 17//139 18//140 33//141 
f 17//142 2//143 18//144 
f 34//145 18//146 19//147 
f 34//148 19//149 20//150 
f 34//151 20//152 21//153 
f 34//154 21//155 22//156 
f 34//157 22//158 23//159 
f 34//160 23//161 24//162 
f 34//163 24//164 25//165 
f 34//166 25//167 26//168 
f 34//169 26//170 27//171 
f 34//172 27//173 28//174 
f 34//175 28//176 29//177 
f 34//178 29//179 30//180 
f 34//181 30//182 31//183 
f 34//184 31//185 32//186 
f 34//187 32//188 33//189 
f 34//190 33//191 18//192 
# 64 faces

